<?xml version="1.0" encoding="UTF-8"?>
<svg id="_图层_1" data-name="图层 1" xmlns="http://www.w3.org/2000/svg" viewBox="0 0 512 512">
  <defs>
    <style>
      .cls-1, .cls-2, .cls-3, .cls-4, .cls-5, .cls-6 {
        fill: #FFFFFF;
      }

      .cls-1 {
        opacity: .65;
      }

      .cls-2 {
        opacity: .85;
      }

      .cls-3 {
        opacity: .75;
      }
    </style>
  </defs>
  <path class="cls-5" d="M448.8,112.72c-38.24-38.24-89.08-59.3-143.15-59.3s-101.63,19.72-139.42,55.65h35.29c29.41-20.93,65.36-33.24,104.13-33.24,99.27,0,180.04,80.76,180.04,180.04s-80.76,180.04-180.04,180.04c-76.23,0-141.53-47.62-167.75-114.67h-23.95c9.85,28.97,26.28,55.52,48.55,77.79,38.24,38.24,89.08,59.3,143.15,59.3s104.91-21.06,143.15-59.3c38.24-38.24,59.3-89.08,59.3-143.15s-21.06-104.92-59.3-143.15Z"/>
  <path class="cls-6" d="M428.75,325.31c-2.01-1.58-4.54-2.34-7.1-2.34h-46.05s-.03.01-.03.03v22.34s.01.03.03.03h22.16c3.12,0,4.86,3.59,2.94,6.04l-9.98,12.7c-.71.9-1.79,1.43-2.94,1.43h-23.31c-1.29,0-2.5-.67-3.18-1.77l-38.19-61.73c-1.29-2.09-.26-4.86,2.1-5.53,36.13-10.33,62.61-43.79,62.32-83.26-.35-47.39-39.72-85.27-87.12-85.27H57.67c-6.1,0-11.05,4.95-11.05,11.05v.32c0,6.1,4.95,11.05,11.05,11.05h242.94c34.85,0,64.42,28.51,64.5,63.36.08,35.04-28.38,63.58-63.39,63.64-3.09,0-6.12,1.23-8.24,3.48-3.58,3.81-4.03,9.38-1.4,13.62l54.53,88.15c2.04,3.3,5.65,5.31,9.53,5.31h41.06c4.62,0,8.76-2.82,10.46-7.12l24.64-42.56c1.78-4.51.48-9.79-3.56-12.97Z"/>
  <path class="cls-3" d="M201.53,164.97l-187.22.17c-6.19,0-11.21,5.02-11.21,11.21v.41c0,6.19,5.02,11.21,11.21,11.21h181.07l6.16-22.99Z"/>
  <path class="cls-1" d="M191.02,204.19H36.72c-6.19,0-11.21,5.02-11.21,11.21s5.02,11.21,11.21,11.21l148.2.36,6.1-22.77Z"/>
  <path class="cls-3" d="M180.51,243.41H59.13c-6.19,0-11.21,5.02-11.21,11.21s5.02,11.21,11.21,11.21l115.56-.68,5.82-21.73Z"/>
  <path class="cls-2" d="M80.68,282.15c-6.15.06-11.1,5.06-11.1,11.21v.11c0,6.19,5.02,11.21,11.21,11.21h83.31l6.01-22.42-89.42-.1Z"/>
  <path class="cls-4" d="M300.86,238.93h-70.88c-1.73,0-3.23,1.18-3.63,2.86l-24.91,103.9c-1.44,6.02,2.27,12.07,8.28,13.51h0c6.02,1.44,12.07-2.27,13.51-8.28l20.79-86.71c.4-1.68,1.9-2.86,3.63-2.86h53.21c6.19,0,11.21-5.02,11.21-11.21s-5.02-11.21-11.21-11.21Z"/>
</svg>
